HIERARCHY
ROOT hips
{
  OFFSET 0 10.6860622 2.3727825e-15
  CHANNELS 6 Xposition Yposition Zposition Yrotation Xrotation Zrotation
  JOINT leftUpperLeg
  {
    OFFSET 0.6642549969 -0.9402397400000004 0
    CHANNELS 3 Yrotation Xrotation Zrotation
    JOINT leftLowerLeg
    {
      OFFSET 0 -3.997221335632195 0
      CHANNELS 3 Yrotation Xrotation Zrotation
      JOINT leftFoot
      {
        OFFSET -0.13777839790000004 -4.6145792000000005 -0.22186036399999998
        CHANNELS 3 Yrotation Xrotation Zrotation
        JOINT leftToes
        {
          OFFSET -0.03777410834999995 -0.9130806927000008 0.85230013
          CHANNELS 3 Yrotation Xrotation Zrotation
          End Site
          {
            OFFSET -0.03777410834999995 -0.9130806927000008 0.85230013
          }
        }
      }
    }
  }
  JOINT rightUpperLeg
  {
    OFFSET -0.6642778626 -0.9402397400000004 0
    CHANNELS 3 Yrotation Xrotation Zrotation
    JOINT rightLowerLeg
    {
      OFFSET 0 -3.997221452859387 0
      CHANNELS 3 Yrotation Xrotation Zrotation
      JOINT rightFoot
      {
        OFFSET 0.1377926176 -4.6145792000000005 -0.22185782299999995
        CHANNELS 3 Yrotation Xrotation Zrotation
        JOINT rightToes
        {
          OFFSET 0.037780746850000047 -0.9130806927000008 0.85230167
          CHANNELS 3 Yrotation Xrotation Zrotation
          End Site
          {
            OFFSET 0.037780746850000047 -0.9130806927000008 0.85230167
          }
        }
      }
    }
  }
  JOINT spine
  {
    OFFSET 0 0.13988381660000015 0
    CHANNELS 3 Yrotation Xrotation Zrotation
    JOINT chest
    {
      OFFSET 0 0.6191039003973773 0
      CHANNELS 3 Yrotation Xrotation Zrotation
      JOINT upperChest
      {
        OFFSET 0 0.9855186130586943 0
        CHANNELS 3 Yrotation Xrotation Zrotation
        JOINT leftShoulder
        {
          OFFSET 0.1807663869 1.5087829790000005 0
          CHANNELS 3 Yrotation Xrotation Zrotation
          JOINT leftUpperArm
          {
            OFFSET 0.5985063006419806 0 0
            CHANNELS 3 Yrotation Xrotation Zrotation
            JOINT leftLowerArm
            {
              OFFSET 2.2993332369501065 0 0
              CHANNELS 3 Yrotation Xrotation Zrotation
              JOINT leftHand
              {
                OFFSET 2.395047042602395 0 0
                CHANNELS 3 Yrotation Xrotation Zrotation
                JOINT leftIndexProximal
                {
                  OFFSET 0.5766295810000004 0.04556643899499946 0.17265095988184
                  CHANNELS 3 Yrotation Xrotation Zrotation
                  JOINT leftIndexIntermediate
                  {
                    OFFSET 0.2957229000000008 -0.019352197700001517 -0.007932640616999987
                    CHANNELS 3 Yrotation Xrotation Zrotation
                    JOINT leftIndexDistal
                    {
                      OFFSET 0.19008243099999922 -0.012484908149998475 -0.002786250786000012
                      CHANNELS 3 Yrotation Xrotation Zrotation
                      End Site
                      {
                        OFFSET 0.19008243099999922 -0.012484908149998475 -0.002786250786000012
                      }
                    }
                  }
                }
                JOINT leftMiddleProximal
                {
                  OFFSET 0.5834975091000001 0.0524350405149987 0.02204081888183999
                  CHANNELS 3 Yrotation Xrotation Zrotation
                  JOINT leftMiddleIntermediate
                  {
                    OFFSET 0.33880573540000003 -0.019871473270000717 -0.00000971183179999946
                    CHANNELS 3 Yrotation Xrotation Zrotation
                    JOINT leftMiddleDistal
                    {
                      OFFSET 0.20676022730000088 -0.012221336379999448 0.0001471936708000235
                      CHANNELS 3 Yrotation Xrotation Zrotation
                      End Site
                      {
                        OFFSET 0.20676022730000088 -0.012221336379999448 0.0001471936708000235
                      }
                    }
                  }
                }
                JOINT leftLittleProximal
                {
                  OFFSET 0.5344154683999995 -0.012880921405001189 -0.24414037221816004
                  CHANNELS 3 Yrotation Xrotation Zrotation
                  JOINT leftLittleIntermediate
                  {
                    OFFSET 0.21758961730000093 -0.011650919939999227 0.011893592810000034
                    CHANNELS 3 Yrotation Xrotation Zrotation
                    JOINT leftLittleDistal
                    {
                      OFFSET 0.1475273964999999 -0.008152365682999818 0.006001092492999946
                      CHANNELS 3 Yrotation Xrotation Zrotation
                      End Site
                      {
                        OFFSET 0.1475273964999999 -0.008152365682999818 0.006001092492999946
                      }
                    }
                  }
                }
                JOINT leftRingProximal
                {
                  OFFSET 0.5799399463000003 0.026911854694997794 -0.12150566991816003
                  CHANNELS 3 Yrotation Xrotation Zrotation
                  JOINT leftRingIntermediate
                  {
                    OFFSET 0.26167887460000006 -0.013480186499999602 0.010996293000000053
                    CHANNELS 3 Yrotation Xrotation Zrotation
                    JOINT leftRingDistal
                    {
                      OFFSET 0.17667108799999987 -0.008990287899999228 0.0055541023999999065
                      CHANNELS 3 Yrotation Xrotation Zrotation
                      End Site
                      {
                        OFFSET 0.17667108799999987 -0.008990287899999228 0.0055541023999999065
                      }
                    }
                  }
                }
                JOINT leftThumbProximal
                {
                  OFFSET 0.11018806699999972 -0.09448718900500053 0.17047963138184
                  CHANNELS 3 Yrotation Xrotation Zrotation
                  JOINT leftThumbIntermediate
                  {
                    OFFSET 0.31062601459999983 -0.08126270900000132 0.15443142000000007
                    CHANNELS 3 Yrotation Xrotation Zrotation
                    JOINT leftThumbDistal
                    {
                      OFFSET 0.21627175790000086 -0.08833193599999878 0.018771167799999988
                      CHANNELS 3 Yrotation Xrotation Zrotation
                      End Site
                      {
                        OFFSET 0.21627175790000086 -0.08833193599999878 0.018771167799999988
                      }
                    }
                  }
                }
              }
            }
          }
        }
        JOINT neck
        {
          OFFSET 0 1.5463305265074576 0
          CHANNELS 3 Yrotation Xrotation Zrotation
          JOINT head
          {
            OFFSET 0 0.8456443600000344 0
            CHANNELS 3 Yrotation Xrotation Zrotation
            JOINT leftEye
            {
              OFFSET 0.30408573140000006 0.5104519199999995 0.1276382305
              CHANNELS 3 Yrotation Xrotation Zrotation
              End Site
              {
                OFFSET 0.30408573140000006 0.5104519199999995 0.1276382305
              }
            }
            JOINT rightEye
            {
              OFFSET -0.30409491089999996 0.5104519199999995 0.1276379445
              CHANNELS 3 Yrotation Xrotation Zrotation
              End Site
              {
                OFFSET -0.30409491089999996 0.5104519199999995 0.1276379445
              }
            }
            JOINT jaw
            {
              OFFSET -3.155239131000001e-7 -0.11984121820000082 0.60178107
              CHANNELS 3 Yrotation Xrotation Zrotation
              End Site
              {
                OFFSET -3.155239131000001e-7 -0.11984121820000082 0.60178107
              }
            }
          }
        }
        JOINT rightShoulder
        {
          OFFSET -0.1807303465 1.5087829790000005 0
          CHANNELS 3 Yrotation Xrotation Zrotation
          JOINT rightUpperArm
          {
            OFFSET -0.5985063796536958 0 0
            CHANNELS 3 Yrotation Xrotation Zrotation
            JOINT rightLowerArm
            {
              OFFSET -2.2993322059002854 0 0
              CHANNELS 3 Yrotation Xrotation Zrotation
              JOINT rightHand
              {
                OFFSET -2.395045314457259 0 0
                CHANNELS 3 Yrotation Xrotation Zrotation
                JOINT rightIndexProximal
                {
                  OFFSET -0.5764487688300002 0.0441371204405987 0.17361932004999997
                  CHANNELS 3 Yrotation Xrotation Zrotation
                  JOINT rightIndexIntermediate
                  {
                    OFFSET -0.29573011380000047 -0.01934826376999843 -0.007698921482999974
                    CHANNELS 3 Yrotation Xrotation Zrotation
                    JOINT rightIndexDistal
                    {
                      OFFSET -0.19008373999999884 -0.012503266380000655 -0.0026365778999999897
                      CHANNELS 3 Yrotation Xrotation Zrotation
                      End Site
                      {
                        OFFSET -0.19008373999999884 -0.012503266380000655 -0.0026365778999999897
                      }
                    }
                  }
                }
                JOINT rightMiddleProximal
                {
                  OFFSET -0.5834852037300005 0.05211639405060153 0.02307162440000001
                  CHANNELS 3 Yrotation Xrotation Zrotation
                  JOINT rightMiddleIntermediate
                  {
                    OFFSET -0.33880114510000003 -0.019952774050000954 0.0002455003561999819
                    CHANNELS 3 Yrotation Xrotation Zrotation
                    JOINT rightMiddleDistal
                    {
                      OFFSET -0.20675694929999955 -0.012273788999999091 0.00030209124000002766
                      CHANNELS 3 Yrotation Xrotation Zrotation
                      End Site
                      {
                        OFFSET -0.20675694929999955 -0.012273788999999091 0.00030209124000002766
                      }
                    }
                  }
                }
                JOINT rightLittleProximal
                {
                  OFFSET -0.5346811737299992 -0.011214256288399227 -0.24363941305000003
                  CHANNELS 3 Yrotation Xrotation Zrotation
                  JOINT rightLittleIntermediate
                  {
                    OFFSET -0.21757715980000092 -0.011771559690000988 0.01201554387
                    CHANNELS 3 Yrotation Xrotation Zrotation
                    JOINT rightLittleDistal
                    {
                      OFFSET -0.1475201849000004 -0.00822055339600003 0.006082065407000015
                      CHANNELS 3 Yrotation Xrotation Zrotation
                      End Site
                      {
                        OFFSET -0.1475201849000004 -0.00822055339600003 0.006082065407000015
                      }
                    }
                  }
                }
                JOINT rightRingProximal
                {
                  OFFSET -0.5800810755299999 0.027657985680600072 -0.12066365025000003
                  CHANNELS 3 Yrotation Xrotation Zrotation
                  JOINT rightRingIntermediate
                  {
                    OFFSET -0.26166445029999974 -0.013623118409999302 0.011164098990000045
                    CHANNELS 3 Yrotation Xrotation Zrotation
                    JOINT rightRingDistal
                    {
                      OFFSET -0.17666387530000027 -0.009072900100000503 0.005668185599999959
                      CHANNELS 3 Yrotation Xrotation Zrotation
                      End Site
                      {
                        OFFSET -0.17666387530000027 -0.009072900100000503 0.005668185599999959
                      }
                    }
                  }
                }
                JOINT rightThumbProximal
                {
                  OFFSET -0.10997596379000074 -0.09577489355940072 0.16989765924999997
                  CHANNELS 3 Yrotation Xrotation Zrotation
                  JOINT rightThumbIntermediate
                  {
                    OFFSET -0.31036620999999986 -0.08229339117999834 0.15440884469999996
                    CHANNELS 3 Yrotation Xrotation Zrotation
                    JOINT rightThumbDistal
                    {
                      OFFSET -0.21631306399999906 -0.08825326400000111 0.018656797720000014
                      CHANNELS 3 Yrotation Xrotation Zrotation
                      End Site
                      {
                        OFFSET -0.21631306399999906 -0.08825326400000111 0.018656797720000014
                      }
                    }
                  }
                }
              }
            }
          }
        }
      }
    }
  }
}
MOTION
Frames: 9
Frame Time: 0.03333333333333333
0 11.682712981546562 0 0 0 0 0 0 -5.826343164929014 -0.3712483961610101 -3.6333298826370974 5.838118207697276 0 0 0 0 0 0 0 0 5.826343164929014 0.3712483961610101 -3.6333298826370974 -5.838118207697276 0 0 0 0 0 0 0 -4.610651315171937 0 0 3.0831277533083026 0 0 0 0 0 1.5275236235667615 0 0 0 0 0 0 0 0 0 0 0 0 0 0 0 0 0 0 0 0 0 0 0 0 0 0 0 0 0 0 0 0 0 0 0 0 0 0 0 0 0 0 0 0 0 0 0 0 0 0 0 0 0 0 0 0 1.5275236235667615 0 0 0 0 0 0 0 0 0 0 0 0 0 0 1.5275236235667615 0 0 0 0 0 0 0 0 0 0 0 0 0 0 0 0 0 0 0 0 0 0 0 0 0 0 0 0 0 0 0 0 0 0 0 0 0 0 0 0 0 0 0 0 0 0 0 0 0 0 0 0 0 0 0
0 -0.7876355002424792 7.451521170450742 179.99999707614126 70.00038869706712 179.99999625246477 -169.49524451451157 -69.96374504906517 170.45539950971371 0.17628403080087784 -3.8716699332677953 1.8687376290072555 8.994167995740822 41.05810439726298 6.363991325547285 0 0 0 169.50421807990026 -70.05292740126905 -170.54141499900877 -0.2426028210265158 -4.036754633805816 -1.7596788189609762 -9.02016149478603 41.106437955842985 -6.491019000190588 0 0 0 -0.8189249418628227 32.99639741332438 -1.4428732126715582 -0.8589579624910041 29.981913219090263 -0.22033715275048577 0 0 0 -7.894594619541849 -0.8686102856384127 43.05357021305517 -55.322237411821625 -30.831701708615164 56.741198420605116 -3.598410443181415 -1.308130728314199 12.833977269630898 -0.008246762902709256 -0.5583445717638517 -3.69184038636445 0 0 0 0 0 0 0 0 0 0 0 0 0 0 0 0 0 0 0 0 0 0 0 0 0 0 0 0 0 0 0 0 0 0 0 0 0 0 0 0 0 0 0 0 0 0 1.127102569946399 0 0 -0.3549590108570474 0 0 0 0 0 0 0 0 0 0 7.870433496256203 -0.7675246418893525 -43.384728834470565 55.3455926731891 -30.848828892482796 -56.79855700767981 3.585185774099174 -1.2850996229730844 -12.829511706028047 -0.33153544826966275 -0.771133921812868 3.767646710851613 0 0 0 0 0 0 0 0 0 0 0 0 0 0 0 0 0 0 0 0 0 0 0 0 0 0 0 0 0 0 0 0 0 0 0 0 0 0 0 0 0 0 0 0 0
0 -0.7876355002424792 7.435307593341141 179.99999707614126 70.00038869706712 179.99999625246477 -169.49524451451157 -69.96374504906517 170.45539950971371 0.17628403080087784 -3.8716699332677953 1.8687376290072555 8.994167995740822 41.05810439726298 6.363991325547285 0 0 0 169.50421807990026 -70.05292740126905 -170.54141499900877 -0.2426028210265158 -4.036754633805816 -1.7596788189609762 -9.02016149478603 41.106437955842985 -6.491019000190588 0 0 0 -0.8220846457113979 33.32961039848879 -1.4486152158580572 -0.8522362873838271 29.205757519463987 -0.20691749102990076 0 0 0 -7.925196796050301 -0.6147579023842267 42.870058871578756 -55.322237411821625 -30.831701708615164 56.741198420605116 -3.598410443181415 -1.3081317958094678 12.833977269630898 -0.006954569523700734 -0.5273490624399846 -3.873103388347044 0 0 0 0 0 0 0 0 0 0 0 0 0 0 0 0 0 0 0 0 0 0 0 0 0 0 0 0 0 0 0 0 0 0 0 0 0 0 0 0 0 0 0 0 0 0 0.7352146416050421 0 0 -0.7031889897003331 0 0 0 0 0 0 0 0 0 0 7.900132850351869 -0.5189359997642713 -43.18385509245964 55.3455926731891 -30.848828892482796 -56.79855700767981 3.585185774099174 -1.2850996229730844 -12.829513371365485 -0.31382171611726545 -0.7290957332757094 3.9471144985460582 0 0 0 0 0 0 0 0 0 0 0 0 0 0 0 0 0 0 0 0 0 0 0 0 0 0 0 0 0 0 0 0 0 0 0 0 0 0 0 0 0 0 0 0 0
0 -0.7876355002424792 7.419094821408355 179.99999707614327 70.00037871181482 179.9999962524668 -169.49524479027664 -69.96373508132605 170.45540076020006 0.17628403080087784 -3.8716699332677953 1.8687376290072555 8.994167995740822 41.05810439726298 6.363991325547285 0 0 0 169.50421807990026 -70.05292740126905 -170.54141499900877 -0.2426028210265158 -4.036754633805816 -1.7596788189609762 -9.02016149478603 41.106437955842985 -6.491019000190588 0 0 0 -0.8252982062743791 33.66286761800606 -1.4544032161856975 -0.8457652358158659 28.429035764659215 -0.19369043812918849 0 0 0 -7.956616067058503 -0.36097479069976884 42.68639739240315 -55.322237411821625 -30.831697731454142 56.74120226462137 -3.598410443181415 -1.308130728314199 12.833978102292408 -0.0057605683062109305 -0.4963473572699928 -4.05437062107994 0 0 0 0 0 0 0 0 0 0 0 0 0 0 0 0 0 0 0 0 0 0 0 0 0 0 0 0 0 0 0 0 0 0 0 0 0 0 0 0 0 0 0 0 0 0 0.342927622930036 0 0 -1.051697947131298 0 0 0 0 0 0 0 0 0 0 7.930708007481309 -0.27042334772728616 -42.982824653849306 55.3455926731891 -30.848828892482796 -56.79856251438522 3.585185774099174 -1.2850996229730844 -12.829511706028047 -0.29597495837495663 -0.6871121024052335 4.1266004953572475 0 0 0 0 0 0 0 0 0 0 0 0 0 0 0 0 0 0 0 0 0 0 0 0 0 0 0 0 0 0 0 0 0 0 0 0 0 0 0 0 0 0 0 0 0
0 -0.7876355002424792 7.402881244298755 179.99999707614126 70.00038869706712 179.99999625246477 -169.49524451451157 -69.96374504906517 170.45540012407352 0.17628403080087784 -3.8716699332677953 1.8687376290072555 8.994167995740822 41.05810439726298 6.363991325547285 0 0 0 169.50421807990026 -70.05292740126905 -170.54141499900877 -0.2426028210265158 -4.036754633805816 -1.7596788189609762 -9.020162915974863 41.106447020587005 -6.491020587851766 0 0 0 -0.8285640876518834 33.996172687606965 -1.4602354861094524 -0.8395401272520662 27.65180435483617 -0.18064924593303408 0 0 0 -7.988852981404048 -0.10726614919269076 42.50258506434011 -55.322237411821625 -30.831701708615164 56.741198420605116 -3.598410443181415 -1.3081317958094678 12.833978102292408 -0.0046646405878668015 -0.465341421684108 -4.2356440399141775 0 0 0 0 0 0 0 0 0 0 0 0 0 0 0 0 0 0 0 0 0 0 0 0 0 0 0 0 0 0 0 0 0 0 0 0 0 0 0 0 0 0 0 0 0 0 -0.04974937994305834 0 0 -1.4004790282078672 0 0 0 0 0 0 0 0 0 0 7.962156018909685 -0.021991292011742998 -42.78163318912212 55.3455926731891 -30.848828892482796 -56.79855700767981 3.585185774099174 -1.2850996229730844 -12.829513371365485 -0.27799711389087023 -0.645181937892573 4.306105173355106 0 0 0 0 0 0 0 0 0 0 0 0 0 0 0 0 0 0 0 0 0 0 0 0 0 0 0 0 0 0 0 0 0 0 0 0 0 0 0 0 0 0 0 0 0
0 -0.7876355002424792 7.38666847236597 179.99999707614126 70.00038869706712 179.99999625246477 -169.4952430339982 -69.96375501680905 170.45539722078166 0.17628397731822001 -3.8716699332677953 1.868738698096633 8.994167995740822 41.05810439726298 6.363991325547285 0 0 0 169.50421750875302 -70.05292740126905 -170.54141232602012 -0.2426028210265158 -4.036754633805816 -1.7596788189609762 -9.02016149478603 41.106437955842985 -6.491019000190588 0 0 0 -0.8318852652592933 34.329496161662426 -1.4661152062361869 -0.8335531394860138 26.874131790757787 -0.16778684096245425 0 0 0 -8.021904701401255 0.1463600807307207 42.31861170817426 -55.322237411821625 -30.831701708615164 56.741198420605116 -3.598409590868861 -1.3081308350637257 12.833975604307863 -0.0036668497087671537 -0.43433127334114974 -4.416920329544167 0 0 0 0 0 0 0 0 0 0 0 0 0 0 0 0 0 0 0 0 0 0 0 0 0 0 0 0 0 0 0 0 0 0 0 0 0 0 0 0 0 0 0 0 0 0 -0.4428083734186747 0 0 -1.749525994574625 0 0 0 0 0 0 0 0 0 0 7.994481651397778 0.22635263099653327 -42.58030334014705 55.345584877169735 -30.848832870353885 -56.798551500974185 3.585185774099174 -1.2850996229730844 -12.82951087335932 -0.2598872197081277 -0.6033083643819088 4.485625371531822 0 0 0 0 0 0 0 0 0 0 0 0 0 0 0 0 0 0 0 0 0 0 0 0 0 0 0 0 0 0 0 0 0 0 0 0 0 0 0 0 0 0 0 0 0
0 -0.7876355002424792 7.370454895256369 179.99999707614126 70.00038869706712 179.99999625246477 -169.49524757722423 -69.96374504906517 170.45540196715294 0.17628403080087784 -3.8716699332677953 1.8687376290072555 8.994167995740822 41.05809986822351 6.363990823528832 0 0 0 169.50421750875302 -70.05292740126905 -170.54141232602012 -0.2426028210265158 -4.036754633805816 -1.7596788189609762 -9.02016149478603 41.106437955842985 -6.491019000190588 0 0 0 -0.8352616337698505 34.66286621628933 -1.472042959931802 -0.8277980029674779 26.096119299220156 -0.15509663086490746 0 0 0 -8.055775718821726 0.3998988164917586 42.134481395625976 -55.32223514897438 -30.831705685776342 56.74119675775023 -3.598410443181415 -1.308130728314199 12.833977269630898 -0.002767216743232068 -0.40331690321110414 -4.598200629751714 0 0 0 0 0 0 0 0 0 0 0 0 0 0 0 0 0 0 0 0 0 0 0 0 0 0 0 0 0 0 0 0 0 0 0 0 0 0 0 0 0 0 0 0 0 0 -0.8362403573461142 0 0 -2.0988330352809004 0 0 0 0 0 0 0 0 0 0 8.027684118059517 0.4746003213936663 -42.378806392051985 55.3455926731891 -30.848828892482796 -56.79855700767981 3.585184495623463 -1.2850996229730844 -12.82951087335932 -0.24164512524651907 -0.5614893303464912 4.665165460449235 0 0 0 0 0 0 0 0 0 0 0 0 0 0 0 0 0 0 0 0 0 0 0 0 0 0 0 0 0 0 0 0 0 0 0 0 0 0 0 0 0 0 0 0 0
0 -0.7876355002424792 7.3542418549313116 179.99999707614126 70.00038869706712 179.99999625246477 -169.49524451451157 -69.96374504906517 170.45539950971371 0.17628403080087784 -3.8716699332677953 1.8687376290072555 8.994167995740822 41.05810439726298 6.363991325547285 0 0 0 169.50421807990026 -70.05292740126905 -170.54141499900877 -0.2426028210265158 -4.036754633805816 -1.7596788189609762 -9.02016149478603 41.106437955842985 -6.491019000190588 0 0 0 -0.8386939740949728 34.996253079239736 -1.47801814954377 -0.8222698370818649 25.317809236993273 -0.14256982194457096 0 0 0 -8.090462646616903 0.6533427770061412 41.95016920965323 -55.322237411821625 -30.831701708615164 56.741198420605116 -3.598410443181415 -1.308130728314199 12.833977269630898 -0.001964699679004007 -0.37229923609129406 -4.779483384672129 0 0 0 0 0 0 0 0 0 0 0 0 0 0 0 0 0 0 0 0 0 0 0 0 0 0 0 0 0 0 0 0 0 0 0 0 0 0 0 0 0 0 0 0 0 0 -1.2300353533697717 0 0 -2.448392895250712 0 0 0 0 0 0 0 0 0 0 8.06175992366489 0.7227453888239057 -42.17714339068836 55.3455926731891 -30.848828892482796 -56.79855700767981 3.585185774099174 -1.2850996229730844 -12.829511706028047 -0.22327295179015924 -0.5197278539882996 4.84471827889903 0 0 0 0 0 0 0 0 0 0 0 0 0 0 0 0 0 0 0 0 0 0 0 0 0 0 0 0 0 0 0 0 0 0 0 0 0 0 0 0 0 0 0 0 0
0 -0.7876355002424792 7.338028546213983 179.99999707614126 70.00038869706712 179.99999625246477 -169.49524451451157 -69.96374504906517 170.45539950971371 0.17628403080087784 -3.8716699332677953 1.8687376290072555 8.994167995740822 41.05810439726298 6.363991325547285 0 0 0 169.50421807990026 -70.05292740126905 -170.54141499900877 -0.2426028210265158 -4.036754633805816 -1.7596788189609762 -9.02016149478603 41.106437955842985 -6.491019000190588 0 0 0 -0.8421830044882536 35.329651568856356 -1.4840436290108256 -0.8169605118329658 24.539277247585815 -0.1302009285393422 0 0 0 -8.125970534465836 0.9066840886368371 41.76569641963058 -55.322237411821625 -30.831701708615164 56.741198420605116 -3.598410443181415 -1.3081317958094678 12.833978102292408 -0.0012613270574743111 -0.3412784230130263 -4.960767581145305 0 0 0 0 0 0 0 0 0 0 0 0 0 0 0 0 0 0 0 0 0 0 0 0 0 0 0 0 0 0 0 0 0 0 0 0 0 0 0 0 0 0 0 0 0 0 -1.624186346149151 0 0 -2.798202106302158 0 0 0 0 0 0 0 0 0 0 8.096713651677986 0.9707804663278433 -41.975302805251424 55.34559493510641 -30.84882491461187 -56.79855918589945 3.585185774099174 -1.2850996229730844 -12.829511706028047 -0.2047685624702499 -0.4780230047677145 5.024287987431642 0 0 0 0 0 0 0 0 0 0 0 0 0 0 0 0 0 0 0 0 0 0 0 0 0 0 0 0 0 0 0 0 0 0 0 0 0 0 0 0 0 0 0 0 0
